<mxfile host="Electron" agent="Mozilla/5.0 (Windows NT 10.0; Win64; x64) AppleWebKit/537.36 (KHTML, like Gecko) draw.io/27.0.5 Chrome/134.0.6998.205 Electron/35.3.0 Safari/537.36" version="27.0.5">
  <diagram name="Страница — 1" id="fQyCKFw8Y4WLY3AgT-hV">
    <mxGraphModel dx="1426" dy="841" grid="1" gridSize="10" guides="1" tooltips="1" connect="1" arrows="1" fold="1" page="1" pageScale="1" pageWidth="1169" pageHeight="827" math="0" shadow="0">
      <root>
        <mxCell id="0" />
        <mxCell id="1" parent="0" />
        <mxCell id="nyQqMUB6JAvfm8kRex88-3" style="edgeStyle=orthogonalEdgeStyle;rounded=0;orthogonalLoop=1;jettySize=auto;html=1;exitX=0.5;exitY=1;exitDx=0;exitDy=0;entryX=0.5;entryY=0;entryDx=0;entryDy=0;" edge="1" parent="1" source="nyQqMUB6JAvfm8kRex88-1" target="nyQqMUB6JAvfm8kRex88-2">
          <mxGeometry relative="1" as="geometry">
            <mxPoint x="470" y="150" as="targetPoint" />
            <Array as="points" />
          </mxGeometry>
        </mxCell>
        <mxCell id="nyQqMUB6JAvfm8kRex88-1" value="Start" style="rounded=1;whiteSpace=wrap;html=1;arcSize=50;fontSize=21;" vertex="1" parent="1">
          <mxGeometry x="520" y="60" width="120" height="60" as="geometry" />
        </mxCell>
        <mxCell id="nyQqMUB6JAvfm8kRex88-10" style="edgeStyle=orthogonalEdgeStyle;rounded=0;orthogonalLoop=1;jettySize=auto;html=1;exitX=0.5;exitY=1;exitDx=0;exitDy=0;entryX=0.5;entryY=0;entryDx=0;entryDy=0;" edge="1" parent="1" source="nyQqMUB6JAvfm8kRex88-2" target="nyQqMUB6JAvfm8kRex88-7">
          <mxGeometry relative="1" as="geometry" />
        </mxCell>
        <mxCell id="nyQqMUB6JAvfm8kRex88-2" value="создание наблюдателей&lt;div&gt;&lt;span style=&quot;color: rgb(199, 125, 186); font-style: italic; font-family: &amp;quot;JetBrains Mono&amp;quot;, monospace; background-color: rgb(30, 31, 34);&quot;&gt;riskyPlayer&lt;br&gt;и&lt;br&gt;conservativePlayer&lt;/span&gt;&lt;/div&gt;" style="whiteSpace=wrap;html=1;" vertex="1" parent="1">
          <mxGeometry x="520" y="160" width="120" height="70" as="geometry" />
        </mxCell>
        <mxCell id="nyQqMUB6JAvfm8kRex88-13" value="" style="edgeStyle=orthogonalEdgeStyle;rounded=0;orthogonalLoop=1;jettySize=auto;html=1;" edge="1" parent="1" source="nyQqMUB6JAvfm8kRex88-7" target="nyQqMUB6JAvfm8kRex88-12">
          <mxGeometry relative="1" as="geometry" />
        </mxCell>
        <mxCell id="nyQqMUB6JAvfm8kRex88-7" value="функция NextRound()" style="whiteSpace=wrap;html=1;" vertex="1" parent="1">
          <mxGeometry x="520" y="270" width="120" height="60" as="geometry" />
        </mxCell>
        <mxCell id="nyQqMUB6JAvfm8kRex88-15" value="" style="edgeStyle=orthogonalEdgeStyle;rounded=0;orthogonalLoop=1;jettySize=auto;html=1;" edge="1" parent="1" source="nyQqMUB6JAvfm8kRex88-12" target="nyQqMUB6JAvfm8kRex88-14">
          <mxGeometry relative="1" as="geometry" />
        </mxCell>
        <mxCell id="nyQqMUB6JAvfm8kRex88-12" value="на рандом выбираются числа&amp;nbsp;&lt;br&gt;бойцов" style="whiteSpace=wrap;html=1;" vertex="1" parent="1">
          <mxGeometry x="520" y="370" width="120" height="60" as="geometry" />
        </mxCell>
        <mxCell id="nyQqMUB6JAvfm8kRex88-17" value="" style="edgeStyle=orthogonalEdgeStyle;rounded=0;orthogonalLoop=1;jettySize=auto;html=1;" edge="1" parent="1" source="nyQqMUB6JAvfm8kRex88-14" target="nyQqMUB6JAvfm8kRex88-16">
          <mxGeometry relative="1" as="geometry" />
        </mxCell>
        <mxCell id="nyQqMUB6JAvfm8kRex88-14" value="выполняется функция которая вызывает функцию двох обэктов чтоб решить кто выиграл а кто проиграл" style="whiteSpace=wrap;html=1;" vertex="1" parent="1">
          <mxGeometry x="520" y="470" width="120" height="100" as="geometry" />
        </mxCell>
        <mxCell id="nyQqMUB6JAvfm8kRex88-16" value="вывод в консоль&amp;nbsp;" style="whiteSpace=wrap;html=1;" vertex="1" parent="1">
          <mxGeometry x="520" y="610" width="120" height="60" as="geometry" />
        </mxCell>
      </root>
    </mxGraphModel>
  </diagram>
</mxfile>
